<svg xmlns="http://www.w3.org/2000/svg" viewBox="0 0 90 90"><defs><style>.cls-1{fill:#f78d1e;}.cls-2{fill:#111;}</style></defs><title>gestion</title><g id="Layer_2" data-name="Layer 2"><g id="Pagina_inicial_Movil" data-name="Pagina inicial Movil"><circle class="cls-1" cx="45" cy="45" r="45"/><path class="cls-2" d="M72.5,49.7A10.7,10.7,0,0,1,61.9,60.3H31.4a11.9,11.9,0,0,1-11.9-12,11.8,11.8,0,0,1,8-11.2c0-.2-.1-.4-.1-.7a13.3,13.3,0,0,1,24.8-6.6,8.1,8.1,0,0,1,4.4-1.3,7.9,7.9,0,0,1,7.9,7.9,9.3,9.3,0,0,1-.5,2.9A10.6,10.6,0,0,1,72.5,49.7ZM53,42.1l-8.7-8.7a1.4,1.4,0,0,0-1.9,0l-8.7,8.7a1.3,1.3,0,0,0,.9,2.3H40v9.2A1.4,1.4,0,0,0,41.4,55h3.9a1.4,1.4,0,0,0,1.4-1.4V44.4h5.4A1.4,1.4,0,0,0,53,42.1Z"/></g></g></svg>