<svg xmlns="http://www.w3.org/2000/svg" viewBox="0 0 251.2 187.7"><defs><style>.cls-1{fill:#e7d5b6;}.cls-2{fill:#ffeac7;}.cls-14,.cls-15,.cls-2,.cls-3,.cls-4,.cls-5,.cls-6,.cls-7,.cls-9{fill-rule:evenodd;}.cls-3{fill:#4682b4;}.cls-13,.cls-4{fill:#603913;}.cls-5,.cls-8{fill:#fff;}.cls-6{fill:#ccbeac;}.cls-10,.cls-12,.cls-7,.cls-9{fill:#202724;}.cls-10,.cls-9{opacity:0.4;}.cls-11{fill:#414042;}.cls-14{fill:#dbaf81;}.cls-15{fill:#333;}.cls-16{fill:#c79c6d;}.cls-17{fill:#2d2725;}</style></defs><title>inventario</title><g id="Layer_2" data-name="Layer 2"><g id="Pagina_inicial_Movil" data-name="Pagina inicial Movil"><rect class="cls-1" x="110" y="77.4" width="21.1" height="21.59"/><path class="cls-2" d="M151.9,51.2a1.7,1.7,0,0,0-1.2.6.6.6,0,0,0-.1-.4c0-.3-.1-.5-.1-.8a1.9,1.9,0,0,1-.2-.7,1.9,1.9,0,0,1-.2-.7l-.3-.8c-.1-.2-.1-.4-.2-.6l-.3-.8c-.1-.2-.1-.4-.2-.6s-.3-.5-.4-.8l-.2-.5a5.9,5.9,0,0,0-.4-.8l-.3-.5-.4-.9-.3-.4a2.2,2.2,0,0,0-.5-.8.5.5,0,0,0-.2-.4l-.6-.9-.2-.3-.7-.9c0-.1-.1-.2-.2-.3l-.7-.8-.2-.3L143,37c0-.1-.1-.1-.1-.2L142,36a.2.2,0,0,0-.2-.2,3,3,0,0,0-.8-.8l-.2-.2-1-.8h-.1l-1-.8h-.1l-1.1-.8h-.1l-1.1-.7a.1.1,0,0,1-.1-.1l-1.2-.6h0l-1.3-.6h0l-1.3-.5h0a27.7,27.7,0,0,0-8.5-2h-2.4a29.9,29.9,0,0,0-29,23.8l-.7-.2c-1.7,0-3.1,3.6-3.1,8s1.4,8.1,3.1,8.1a1.6,1.6,0,0,0,1.1-.5,29.9,29.9,0,0,0,28.6,22.1h2.4a27.7,27.7,0,0,0,8.5-2h0l1.3-.5h0l1.3-.6h0l1.2-.6h.1l1.1-.7h.1l1.1-.8h.1l1-.8h.1l1-.8.2-.2a3,3,0,0,0,.8-.8.2.2,0,0,0,.2-.2l.9-.8c0-.1.1-.1.1-.2l.8-.8.2-.3.7-.8c.1-.1.2-.2.2-.3l.7-.9.2-.3.6-.9.2-.3a4.1,4.1,0,0,0,.5-.9l.3-.4.4-.9.3-.5a5.9,5.9,0,0,0,.4-.8l.2-.5c.1-.3.3-.5.4-.8s.1-.4.2-.6l.3-.8c.1-.2.1-.4.2-.6l.3-.8a1.9,1.9,0,0,1,.2-.7v-.3a2.2,2.2,0,0,0,1.6,1c1.7,0,3.2-3.6,3.2-8.1S153.6,51.2,151.9,51.2Z"/><path class="cls-3" d="M190.4,166.7c0-26.2-10.2-52.7-24.3-61-8.4-5.5-23.3-9.4-45.1-9.4s-37.8,3.8-46.3,9.3c-14.2,8.2-23.2,34.8-23.2,61.1V174H76.7v-7.3c0-17.3,5.6-28.1,9.1-33.6V174h70V134.6c3.9,5.8,9.4,16.2,9.4,32.1V174h25.2Z"/><path class="cls-4" d="M150.2,49.9l-.3-1a8.8,8.8,0,0,0-.5-1.5,5,5,0,0,0-.5-1.3,5.4,5.4,0,0,0-.5-1.1,6.1,6.1,0,0,0-.7-1.4l-.4-.9-1-1.5-.4-.6L144.7,39l-.3-.5L143,36.9l-.3-.2c-.5-.6-1.1-1.1-1.6-1.6l-.2-.2L139,33.4h0a28.7,28.7,0,0,0-17.5-5.8c-16,0-29.1,13-29.8,29.3,1.9-2.1,3.1-5.1,4.9-7.2,3-3.6,6.9-6,10.4-9.2s6.3-2.5,8.6,0a26.6,26.6,0,0,0,6.8,5.4h0a12.3,12.3,0,0,0,2.6,1.2l.3.2.8.3h.2l1.5.5H129l1.2.2h3.4l1.1-.3h.2l1.2-.5h.3l1.3-.7A6.2,6.2,0,0,1,146,49c.8,1.3,2.9,2.5,4.8,3.5A11,11,0,0,0,150.2,49.9Z"/><path class="cls-5" d="M154.1,41.7c-.1-.2-.1-.5-.2-.7s-2-6.8-2-8.7c0-14.4-13.5-26.2-30.2-26.2S91.5,17.9,91.5,32.3c0,1.6-1.5,6.6-2.5,9.4Z"/><path class="cls-5" d="M121.3,15.6a7.8,7.8,0,0,0,0-15.6,7.9,7.9,0,0,0-7.9,7.8A7.9,7.9,0,0,0,121.3,15.6Z"/><path class="cls-6" d="M103.9,11.2a31.1,31.1,0,0,1,9.1-4,5.7,5.7,0,0,1,.3,1.8V30a4.7,4.7,0,0,1-4.7,4.7h0a4.7,4.7,0,0,1-4.7-4.7Z"/><path class="cls-6" d="M129.6,7a32.6,32.6,0,0,1,9,3.6V30a4.7,4.7,0,0,1-4.7,4.7h0a4.7,4.7,0,0,1-4.7-4.7V9A6.5,6.5,0,0,1,129.6,7Z"/><path class="cls-5" d="M155.9,42.1a2.5,2.5,0,0,1-2.4,2.6H89.6a2.6,2.6,0,0,1-2.5-2.6h0a2.5,2.5,0,0,1,2.5-2.5h63.9a2.5,2.5,0,0,1,2.4,2.5Z"/><path class="cls-5" d="M107.3,96.8l13.6,43.3,12.7-43.3s-2-.5-12-.5A141.8,141.8,0,0,0,107.3,96.8Z"/><path class="cls-7" d="M128,96.2c0,2.2-3,4-6.7,4s-6.8-1.8-6.8-4,3-4.1,6.8-4.1S128,93.9,128,96.2Z"/><polygon class="cls-7" points="119.4 98.3 116.5 125.9 120.9 140.1 125.3 125.9 123.7 98.4 119.4 98.3"/><rect class="cls-8" x="131.6" y="139.6" width="18.1" height="9.67"/><polygon class="cls-9" points="133.6 96.8 144.5 107.7 120.9 140.1 133.6 96.8"/><polygon class="cls-9" points="107.4 96.8 98 107.8 121 140.3 107.4 96.8"/><rect class="cls-10" x="119.9" y="139.8" width="2.1" height="34.28"/><polygon class="cls-11" points="62.4 104.4 183.9 104.4 174.4 166.8 71 166.8 62.4 104.4"/><rect class="cls-12" x="70.7" y="165.3" width="103.9" height="8.42"/><polygon class="cls-8" points="112.3 130 134 130 132.3 141.1 113.8 141.1 112.3 130"/><rect class="cls-13" y="172.9" width="251.2" height="14.78"/><path class="cls-14" d="M134.6,79.6c-.9,3.8-27.4,3.4-26.9,0A62.6,62.6,0,0,0,134.6,79.6Z"/><path class="cls-14" d="M127,83.7c-.4,2.6-11.9,2.3-11.7,0A18,18,0,0,0,127,83.7Z"/><path class="cls-15" d="M110.8,56.5c1.5,0,2.7,2,2.7,4.4s-1.2,4.5-2.7,4.5-2.6-2-2.6-4.5S109.3,56.5,110.8,56.5Z"/><path class="cls-5" d="M111.2,57.1a1.6,1.6,0,1,1-1.6,1.6A1.6,1.6,0,0,1,111.2,57.1Z"/><path class="cls-15" d="M131.7,56.5c1.5,0,2.6,2,2.6,4.4s-1.1,4.5-2.6,4.5-2.7-2-2.7-4.5S130.2,56.5,131.7,56.5Z"/><path class="cls-5" d="M132.1,57.1a1.6,1.6,0,0,1,0,3.2,1.6,1.6,0,1,1,0-3.2Z"/><path class="cls-16" d="M124.8,72.7c.9-.6,2.2,0,1.3.6a9,9,0,0,1-9.7,0c-.9-.6.3-1.1,1.3-.6A8.8,8.8,0,0,0,124.8,72.7Z"/><path class="cls-17" d="M104.3,54.8c-1.4,1-2.9-.1-1.5-1,3.6-2.4,9.5-2.4,13,.1,1.3,1-.6,2.6-2,1.6S106.8,53.2,104.3,54.8Z"/><path class="cls-17" d="M138.2,54.8c1.4,1,2.9-.1,1.5-1-3.6-2.4-9.5-2.4-12.9.1-1.4,1,.5,2.6,1.9,1.6S135.7,53.2,138.2,54.8Z"/></g></g></svg>