<svg xmlns="http://www.w3.org/2000/svg" viewBox="0 0 100.4 38"><title>logo</title><g id="Layer_2" data-name="Layer 2"><g id="Pagina_inicial_Movil" data-name="Pagina inicial Movil"><path d="M86.3,28.5H69.7a9.6,9.6,0,0,1-9.6-9.6h0a9.5,9.5,0,0,1,9.6-9.5H81.6V0H69.7A18.9,18.9,0,0,0,50.8,18.9h0A19,19,0,0,0,69.8,38H88.7a11.7,11.7,0,0,0,11.7-11.7V12.4H90.8V24A4.5,4.5,0,0,1,86.3,28.5Z"/><path d="M99.1,0H92a1.1,1.1,0,0,0-1.2,1.1V8.2A1.2,1.2,0,0,0,92,9.4h7.3a1.1,1.1,0,0,0,1.1-1.2V1.3A1.3,1.3,0,0,0,99.1,0Z"/><path d="M14.1,9.5H30.7a9.6,9.6,0,0,1,9.6,9.6h0a9.5,9.5,0,0,1-9.6,9.5H18.8V38h12A18.9,18.9,0,0,0,49.6,19.1h0A19,19,0,0,0,30.6,0H11.7A11.7,11.7,0,0,0,0,11.7V25.6H9.6V14A4.5,4.5,0,0,1,14.1,9.5Z"/><path d="M1.3,38H8.5a1.1,1.1,0,0,0,1.1-1.1V29.8a1.1,1.1,0,0,0-1.1-1.2H1.1A1.1,1.1,0,0,0,0,29.8v6.9A1.3,1.3,0,0,0,1.3,38Z"/></g></g></svg>