<svg xmlns="http://www.w3.org/2000/svg" xmlns:xlink="http://www.w3.org/1999/xlink" viewBox="0 0 260.05 311.92"><defs><style>.cls-1{fill:#a5b7c6;opacity:0.47;}.cls-2{fill:#ffc182;}.cls-3{fill:#42af98;}.cls-4{fill:#009d92;}.cls-5{fill:#051423;}.cls-6{fill:#002c46;}.cls-7{fill:#fbca8e;}.cls-8{fill:#eeab67;}.cls-9{fill:#fff;}.cls-10{fill:url(#linear-gradient);}.cls-11{fill:#a56052;}.cls-12{fill:url(#linear-gradient-2);}.cls-13{fill:#643619;}.cls-14{fill:#994d1d;}.cls-15{fill:url(#linear-gradient-3);}.cls-16{fill:#f4a29d;}.cls-17{fill:#582c1a;}.cls-18{fill:#f4951b;}.cls-19{fill:#e9e9e9;}.cls-20{fill:#2a2e31;}.cls-21{fill:#3f4549;}.cls-22{fill:#c8c8c8;}.cls-23{fill:#8a8b8b;}.cls-24{fill:#004173;}.cls-25{fill:url(#linear-gradient-4);}.cls-26{fill:url(#linear-gradient-5);}.cls-27{fill:url(#linear-gradient-6);}.cls-28{fill:#b06523;}.cls-29{fill:#46271e;}.cls-30{fill:#fcbf00;}.cls-31{fill:#ffdf00;}</style><linearGradient id="linear-gradient" x1="407.47" y1="85.3" x2="402.51" y2="88.38" gradientTransform="translate(-161.63 -123.1) rotate(14.55)" gradientUnits="userSpaceOnUse"><stop offset="0" stop-color="#d38278"/><stop offset="1" stop-color="#f6b9ad" stop-opacity="0"/></linearGradient><linearGradient id="linear-gradient-2" x1="393.51" y1="79.16" x2="395.57" y2="86.13" gradientTransform="translate(-161.63 -123.1) rotate(14.55)" gradientUnits="userSpaceOnUse"><stop offset="0" stop-color="#da9c68"/><stop offset="1" stop-color="#da9c68" stop-opacity="0"/></linearGradient><linearGradient id="linear-gradient-3" x1="1162.64" y1="-120.54" x2="1164.69" y2="-113.56" gradientTransform="matrix(-0.97, 0.25, 0.25, 0.97, 1370.79, -123.1)" xlink:href="#linear-gradient-2"/><linearGradient id="linear-gradient-4" x1="298.41" y1="103.29" x2="293.19" y2="106.54" xlink:href="#linear-gradient"/><linearGradient id="linear-gradient-5" x1="283.7" y1="96.82" x2="285.87" y2="104.16" xlink:href="#linear-gradient-2"/><linearGradient id="linear-gradient-6" x1="1266.35" y1="-158.31" x2="1268.51" y2="-150.97" gradientTransform="matrix(-0.97, 0.25, 0.25, 0.97, 1370.79, -123.1)" xlink:href="#linear-gradient-2"/></defs><title>nosotros</title><g id="Layer_2" data-name="Layer 2"><g id="Pagina_inicial_Escritorio" data-name="Pagina inicial Escritorio"><path class="cls-1" d="M250.29,306.06c0,3.24-19.69,5.86-44,5.86s-44-2.62-44-5.86,19.69-5.87,44-5.87S250.29,302.82,250.29,306.06Z"/><path class="cls-2" d="M166.59,135.8s8.6,20.18,12.52,28,4.69,15.48-.79,15.95c-3.44.16-6.1-3.75-5.78-5s2.81-.47,2.81-.47-3.44-.16-3.44-5.48c-10.48-10.48-18.77-35.51-18.77-35.51Z"/><path class="cls-3" d="M190.41,95.48c-2.82,1.1-28.2,19.2-34.93,30.31,5.48,7.82,15.1,7.23,15.1,7.23l13.22-7.85Z"/><path class="cls-4" d="M154.86,123.29c-1.25,1.41-3.44,7.82-3.76,10.48,4.07,1.56,18,4.07,18,4.07l3.45-5.63Z"/><path class="cls-5" d="M194,293.62c-.73,1.24-9.62,8.47-19.8,9.93-2.87.12-1.35,2.59,2.58,3.38s16.82-.79,21.83-1.74,5.68-1.58,5.57-3-2-8.58-2-8.58Z"/><path class="cls-5" d="M230.78,293.88c.83,2,2.53,5.9,3.4,7.91s1.31,5.54-7.6,5.54-9.08-3.36-8.08-5.19,2.58-8.22,2.58-8.22Z"/><path class="cls-6" d="M224.94,178c.81,6.49,7.1,115.8,7.1,115.8s-4.89,2.55-13.39.21c-.4-26.37-19.67-115.2-19.67-115.2Z"/><path class="cls-6" d="M181.13,174.37S193.3,275,192.49,294c4.34,1.73,10.95,0,10.95,0l.2-102-1.82-14.4Z"/><path class="cls-4" d="M205.55,87.56C221.87,88,230.2,98,226.88,120.9c-3,20.88,1.42,47.9,1.89,58-40.23,8-50.55-3.87-50.55-3.87S171.26,86.61,205.55,87.56Z"/><path class="cls-7" d="M213.57,87.57l-.27-10.8-12.48.38.2,8.3.14,4.84s-.07,2.51,4.41,2.63a13.27,13.27,0,0,0,8.06-3Z"/><polygon class="cls-8" points="213.3 76.77 200.62 76.99 200.83 81.81 201.09 88.06 213.57 87.84 213.3 76.77"/><path class="cls-7" d="M194.07,62.68c1.3,3.37,1.28,6-.92,6.94s-7-.31-8.25-3.68-.58-6.89,1.62-7.87S192.77,59.31,194.07,62.68Z"/><path class="cls-9" d="M202.59,75.38c.25-.08.56-.16.87-.24-.05-.26-.09-.45-.09-.51Z"/><path class="cls-7" d="M188.64,66.68c1.77,11.54,10,19.29,21.6,18.26C220.8,84,228.1,69.25,228.4,55.79s-6.92-24.12-19.67-23.92C189.21,32.17,184.92,42.37,188.64,66.68Z"/><path class="cls-7" d="M222.17,61.61c-1.34,3.35-1.35,5.94.84,7s7-.22,8.3-3.58.66-6.88-1.53-7.89S223.51,58.25,222.17,61.61Z"/><path class="cls-10" d="M205.26,60.39c3.1-.62,5.7-.11,6.28,2.18s-2.55,3.7-5.11,4S202.86,60.87,205.26,60.39Z"/><path class="cls-11" d="M203.9,60.82a10.56,10.56,0,0,1,1.83-.59,9.58,9.58,0,0,1,1.93-.2,4.94,4.94,0,0,1,3.72,1.4,2.23,2.23,0,0,1,.46,2.13,3.58,3.58,0,0,1-1.23,1.66,9,9,0,0,1-3.49,1.61c.55-.32,1.12-.59,1.63-1a8.14,8.14,0,0,0,1.46-1.11c.88-.81,1.34-2,.57-2.83a4.92,4.92,0,0,0-3.15-1.31A14.26,14.26,0,0,0,203.9,60.82Z"/><path class="cls-11" d="M201.58,72a3.64,3.64,0,0,0,1,3,5.28,5.28,0,0,0,2.64,1.67,10.83,10.83,0,0,0,3.23.37c.55,0,1.11-.07,1.67-.1s1.11-.15,1.69-.2c-.53.22-1.08.39-1.62.58s-1.12.27-1.7.34a9,9,0,0,1-3.5-.23,5.31,5.31,0,0,1-2.9-2.06,4.68,4.68,0,0,1-.7-1.64A2.56,2.56,0,0,1,201.58,72Z"/><path class="cls-12" d="M203.92,52c.28,2.13,1.47,8.35-4.5,8.85s-4.55-6.72-4.55-6.72A77.79,77.79,0,0,1,203.92,52Z"/><path class="cls-13" d="M201.94,60.25a.82.82,0,1,1-.59-1A.81.81,0,0,1,201.94,60.25Z"/><path class="cls-14" d="M202.63,51.64c-6.84.48-10.6,3.2-6.25,3.17S207.14,51.33,202.63,51.64Z"/><path class="cls-15" d="M210.63,52c-.29,2.13-1.48,8.35,4.49,8.85s4.55-6.72,4.55-6.72A78,78,0,0,0,210.63,52Z"/><path class="cls-13" d="M212.61,60.25a.81.81,0,0,0,1.57-.41.81.81,0,0,0-1-.58A.8.8,0,0,0,212.61,60.25Z"/><path class="cls-14" d="M211.91,51.64c6.84.48,10.6,3.2,6.25,3.17S207.4,51.33,211.91,51.64Z"/><path class="cls-16" d="M196,62.46c0,.45-1.19.83-2.66.83s-2.66-.38-2.66-.83,1.19-.84,2.66-.84S196,62,196,62.46Z"/><path class="cls-16" d="M224,62.46c0,.45-1.19.83-2.66.83s-2.66-.38-2.66-.83,1.19-.84,2.66-.84S224,62,224,62.46Z"/><path id="_Path_" data-name="&lt;Path&gt;" class="cls-17" d="M233.71,31.32a3.31,3.31,0,0,0-2.47.6,9.86,9.86,0,0,0,.55-5.66,3.15,3.15,0,0,0-2.8,3,4.67,4.67,0,0,0-1.08-3.59.7.7,0,0,0-.37-.27c-.28-.05-.51.22-.66.47a10,10,0,0,0-.35,3.08c-.81-.52-3-4.19-8.34-6.22-6.73-2.55-15.75-2.41-15.76-2.14a5.86,5.86,0,0,0,.88,3.35c-4.39-3.35-9.69-3.21-15.14-2.32a10,10,0,0,0,1.23,4.78s-5.57-1.55-5.61-1.45c-1.24,2.88-2.76,8.1-1,10.48a3.59,3.59,0,0,0-1.84-.9c-.86,2.21-.62,4.68-.28,7,.78,5.2,2.85,14.91,4.26,18,1.31-1.62,3.2-1.44,3.86,1.55,0,0-.06-13.12,2.85-15.28,6-4.47,5.69,1,13.82-.9,5.41-1.29,12.87-6.24,18.21,2.23,1.61,2.55,1.63,9.54,2.88,12,.41-1.72,1.19-2,3.7-1.82l1.54-5.79c2.08-5.63,2.42-13.24.7-17.85-.09-.24,0-.26,0-.26S234.09,31.9,233.71,31.32Z"/><path class="cls-18" d="M198.28,111.77c-5.83-4.37.76-23.45.76-23.45l-4.82,2.54s-7.46,22.07-14.06,27.35c-2.26,6.6-4.45,39.68-3.88,57.59a46.13,46.13,0,0,0,20.05,6.39s3-63,3.23-66.81C199.69,113.31,199.48,112.66,198.28,111.77Z"/><path class="cls-18" d="M205.84,182.59c17.13,1.6,25.48-3.07,25.48-3.07s-2.89-35.66-3.83-50.75c-8.86-1.51-6-26.44-2.64-32.28a13.94,13.94,0,0,0-2.95-3.63,15.75,15.75,0,0,0-4-2.58s2.23,15-9.18,22.3c-1.2.76-1.64.61-1.64,1.87C206.13,134.9,205.84,182.59,205.84,182.59Z"/><path class="cls-9" d="M210.93,157.07a117.8,117.8,0,0,0,18.51-1.4c-.22-2.78-.43-5.63-.64-8.43a114.22,114.22,0,0,1-22.58,1.31c-.05,2.87-.09,5.7-.12,8.43C207.67,157,209.28,157.07,210.93,157.07Z"/><path class="cls-9" d="M206,161.52c0,3-.07,5.87-.09,8.43q2.43.09,5,.09a117,117,0,0,0,19.51-1.55c-.2-2.56-.43-5.43-.66-8.44A112.85,112.85,0,0,1,206,161.52Z"/><path class="cls-3" d="M213.52,86.8c-.67,1.62-3.61,4.91-7.81,6.12a54.17,54.17,0,0,1,1.87,7.09s7.13-4.72,8.5-10.29A6.74,6.74,0,0,0,213.52,86.8Z"/><path class="cls-3" d="M205.71,92.92c-1.37-.23-4.53-3.49-4.55-5.19-1,1-1.72,3.89-1.72,3.89a8.74,8.74,0,0,0,2.63,7.83A33.88,33.88,0,0,1,205.71,92.92Z"/><path class="cls-2" d="M246.49,135.93s-9.56,19.75-13.83,27.37-5.43,15.25,0,16c3.43.32,6.27-3.46,6-4.72s-2.79-.61-2.79-.61,3.44,0,3.7-5.3c11-10,20.44-34.58,20.44-34.58Z"/><path class="cls-3" d="M224.91,98c2.76,1.23,24.48,17.84,30.67,29.25a20.4,20.4,0,0,1-14.47,7.77L224.32,123.4s-2.54-2.49-2.27-11.17C222.33,102.92,224.91,98,224.91,98Z"/><path class="cls-4" d="M256.32,124.81c1.18,1.47,3.07,8,3.25,10.65-4.13,1.37-18.16,3.21-18.16,3.21L237.92,134Z"/><path class="cls-9" d="M197.55,156.45c.13-2.76.27-5.6.4-8.43A134.35,134.35,0,0,1,177,144.53c-.17,2.81-.33,5.68-.45,8.55a143.66,143.66,0,0,0,18.19,3.1C195.67,156.28,196.6,156.37,197.55,156.45Z"/><path class="cls-9" d="M176.42,157.34c-.11,2.95-.18,5.86-.21,8.63a145.68,145.68,0,0,0,18.57,3.19l2.16.21c.12-2.58.25-5.42.4-8.43A131,131,0,0,1,176.42,157.34Z"/><ellipse class="cls-1" cx="104.34" cy="305.29" rx="54.97" ry="5.86"/><path class="cls-2" d="M134.87,121.05s-8.4,19.71-12.22,27.35-4.59,15.12.76,15.58c3.36.15,6-3.67,5.65-4.89s-2.75-.46-2.75-.46,3.36-.15,3.36-5.34C139.91,143.05,148,118.61,148,118.61Z"/><path class="cls-19" d="M113.9,84.17c2.75,1.07,25.24,16.26,31.81,27.11A19.93,19.93,0,0,1,132,119.53l-13.9-8.86Z"/><path class="cls-9" d="M146.32,108.83c1.23,1.38,3.36,7.64,3.67,10.24-4,1.53-17.57,4-17.57,4l-3.36-5.5Z"/><path class="cls-20" d="M77.62,293.66c-.71,1.21-8.29,7.74-18.24,9.17-2.8.11-1.32,2.53,2.53,3.3s16.42-.77,21.31-1.71,5.55-1.53,5.44-2.91-.22-5.88-.22-5.88Z"/><path class="cls-20" d="M120.63,293.6s0,7.2,0,8.35.65,1.59,1.92,2.14,14.22,3.3,26,2.86c1.87-.16,2.25-1.7.49-2.36s-13.67-7.2-15.71-8.46-3.18-4.29-3.18-4.29Z"/><path class="cls-21" d="M76.11,167.27s.21,116.2,0,127c8,3.94,13.31,1.67,13.31,1.67l6.4-124.73Z"/><path class="cls-21" d="M121.85,166.23s0,83.15,9.77,125.77c-2.71,3.11-11.65,2.28-11.65,2.28L101.42,171Z"/><path class="cls-21" d="M80.66,185.81c7.14,5.28,29.66,3.19,38.89-2.42-.33-5.16,0-14.28,0-14.28L81,169.77Z"/><path class="cls-22" d="M128,192.93c-1.85-.42-3.85,7.95-1.83,8.5,1.12.3,2.68-1.41,3.2-3.3a21.33,21.33,0,0,0,.23-8.24L2.75,164.14l.84,2.64Z"/><path class="cls-23" d="M128,192.93c.87.18,1.17,3.95,0,6-.66-.08-2.58-.56-2.58-.56S126.1,192.86,128,192.93Z"/><path class="cls-9" d="M126.14,201.43l-125.2-27s-1.49-1.13-.72-4.54,2.55-4,2.55-4l125.2,27a7.41,7.41,0,0,0-1.83,3.86A10.7,10.7,0,0,0,126.14,201.43Z"/><path class="cls-9" d="M100.69,79.21c-16.18,0-26.65,8.09-27.28,38.54s-2.06,51.71-2.06,51.71,26.65,9.21,53.77,0c-.79-13.64-1-42.82-1.43-50.44C122.26,92.85,116.87,79.21,100.69,79.21Z"/><path class="cls-19" d="M98.62,96.33C107.57,96.4,110.9,87,112,82.46a18.72,18.72,0,0,0-11.29-3.25c-5.58,0-10.49,1-14.54,3.48C86.59,88.5,88.91,96.25,98.62,96.33Z"/><path class="cls-8" d="M106.54,84.17,105.21,60.8l-13.34.63L90,84.27C93.89,86.16,102.27,86.2,106.54,84.17Z"/><polygon class="cls-24" points="106.6 140.08 98.21 152.77 89.76 140.08 96.21 92 100.16 92 106.6 140.08"/><path class="cls-24" d="M93.5,88.47c.06,2.3,2.79,3.83,2.79,3.83h3.91A7.11,7.11,0,0,0,102.45,89a9.57,9.57,0,0,0-3.22-3.34l-1.75,0Z"/><path class="cls-9" d="M90.37,79.36c.09,1,3.59,5.86,7.9,6.26a83.1,83.1,0,0,0-5.54,6.82s-4-6.57-4.12-11C88.57,80.26,90.37,79.36,90.37,79.36Z"/><path class="cls-9" d="M106.2,79.36c-.08,1-3.91,5-7.9,6.26,1.45,1.89,5.55,6.82,5.55,6.82s4-6.57,4.11-11C108,80.26,106.2,79.36,106.2,79.36Z"/><path class="cls-19" d="M82.37,85.74c-9.42,4.93-21.22,24.77-22.71,48.4,2.22,2.1,10.81,1.72,13.25,0C73.46,127.54,72.28,97.85,82.37,85.74Z"/><path class="cls-2" d="M68.86,177c1.14,1.21,3.39,3.28,3.22,5s1.32,6,2.14,6.79-1.48,3.33-3.72-1a4,4,0,0,0-.64,1.57l.32.06s.08,1.6-2.26,1.4-6.16-.51-7.73-1.4-1.41-2.64-1.44-3.85c-.09-3.36,2.13-8.57,2.13-8.57Z"/><path class="cls-2" d="M68.86,177c-.63.52-5.3,1.64-8,.36.2-4.76.13-38.68.2-41.15s10.89-1.57,10.82,1.4S68.86,177,68.86,177Z"/><path class="cls-9" d="M59.66,133.39a26.72,26.72,0,0,0,13,.28.83.83,0,0,1,1,.81V138a.82.82,0,0,1-.52.77c-1.43.57-5.86,1.83-14-.08a.84.84,0,0,1-.64-.83c0-1.43.11-2.83.18-3.75A.82.82,0,0,1,59.66,133.39Z"/><path class="cls-7" d="M83.07,52.73c1.37,3.55,1.34,6.29-1,7.31s-7.32-.32-8.69-3.87-.61-7.27,1.71-8.3S81.7,49.18,83.07,52.73Z"/><path class="cls-7" d="M77.34,57C79.2,69.11,87.87,77.27,100.1,76.19c11.13-1,18.82-16.54,19.14-30.72S112,20.06,98.51,20.26C77.94,20.58,73.42,31.32,77.34,57Z"/><path class="cls-7" d="M112.68,51.6c-1.42,3.53-1.42,6.27.88,7.32s7.33-.23,8.74-3.77.7-7.25-1.61-8.31S114.09,48.06,112.68,51.6Z"/><path class="cls-25" d="M94.86,50.32c3.26-.66,6-.12,6.61,2.3s-2.68,3.89-5.39,4.21S92.32,50.82,94.86,50.32Z"/><path class="cls-11" d="M93.43,50.77a11.35,11.35,0,0,1,1.92-.63,10.53,10.53,0,0,1,2-.2,5.23,5.23,0,0,1,3.92,1.47,2.34,2.34,0,0,1,.47,2.24,3.65,3.65,0,0,1-1.28,1.75,9.46,9.46,0,0,1-3.69,1.7c.59-.33,1.18-.62,1.73-1a8,8,0,0,0,1.53-1.17c.93-.86,1.41-2.13.6-3a5.13,5.13,0,0,0-3.32-1.38A15.28,15.28,0,0,0,93.43,50.77Z"/><path class="cls-26" d="M93.44,41.5c.3,2.24,1.55,8.79-4.74,9.32s-4.79-7.08-4.79-7.08A80.79,80.79,0,0,1,93.44,41.5Z"/><path class="cls-13" d="M91.35,50.17a.86.86,0,1,1-.61-1.05A.86.86,0,0,1,91.35,50.17Z"/><path class="cls-14" d="M92.08,41.1c-7.21.5-11.16,3.37-6.58,3.33S96.84,40.77,92.08,41.1Z"/><path class="cls-27" d="M100.51,41.5c-.3,2.24-1.55,8.79,4.73,9.32s4.8-7.08,4.8-7.08A81.31,81.31,0,0,0,100.51,41.5Z"/><path class="cls-13" d="M102.59,50.17a.86.86,0,1,0,.62-1.05A.87.87,0,0,0,102.59,50.17Z"/><path class="cls-14" d="M101.86,41.1c7.21.5,11.17,3.37,6.59,3.33S97.11,40.77,101.86,41.1Z"/><path class="cls-16" d="M85.05,52.49c0,.49-1.25.88-2.8.88s-2.81-.39-2.81-.88,1.26-.87,2.81-.87S85.05,52,85.05,52.49Z"/><path class="cls-16" d="M114.62,52.49c0,.49-1.25.88-2.8.88S109,53,109,52.49s1.26-.87,2.81-.87S114.62,52,114.62,52.49Z"/><path class="cls-28" d="M78.32,65.38C80.94,71.32,84.6,75.6,88.8,77.25c7.59,3,14.17,2.06,19.79-1.11C121.24,69,118.72,32.9,118.72,32.9l-3.58.7s.94,23.7-2.35,27.58c-1.4,1.66-7.08-1.56-14.59-1.64-8.88-.08-16.18,3.87-17.47,2.1-1.56-2.12-3.92-14.52-1.13-28.22,1.11-5.46-5.46-.18-5.46-.18S74.93,57.7,78.32,65.38Z"/><path class="cls-28" d="M89.94,18.94l2.26-1.63c3-2.49,13.07-5.06,16.72-2.06-.87,0-.27.52-1.13.57,5,1.13,13.27,3.28,13.85,14.24a76.1,76.1,0,0,1-1.45,16.57c-1.15.12-1.09-.4-2,.34a3.31,3.31,0,0,0-1.14,1.38c.22-5.56-1.58-13.1-5.6-17.5-1.88-2.05-6.89-1.14-9.61-1.72A20.37,20.37,0,0,1,92.63,25C89.6,22.4,87.83,21,89.94,18.94Z"/><path class="cls-28" d="M94.26,17.22c3.26,1.11,7.48,2,9.33,5.11l-1-.3c3.41,4.09-6.74,15.21-9.35,17.86a21.64,21.64,0,0,1-10.6,5.46,6,6,0,0,1,.14-2.06,4.32,4.32,0,0,0,.3-1.08,10.58,10.58,0,0,0-.3,1.08A9.92,9.92,0,0,1,81,46.13c-1.4,1.44-4.69,5.9-5,9.38-4.54-18.07-5.39-28.52,3-36.11C83.33,15.55,92,16.46,94.26,17.22Z"/><path class="cls-29" d="M91,62.5a3.9,3.9,0,0,0,1,3.15,5.61,5.61,0,0,0,2.78,1.76,12,12,0,0,0,3.4.39c.58,0,1.17-.08,1.76-.1s1.17-.17,1.78-.22c-.56.23-1.13.41-1.7.62s-1.18.28-1.79.35a9.43,9.43,0,0,1-3.69-.25A5.52,5.52,0,0,1,91.49,66a4.66,4.66,0,0,1-.74-1.73A2.74,2.74,0,0,1,91,62.5Z"/><path class="cls-30" d="M74,17.34C73,21.8,72.21,36.4,72.21,36.4s26.32-11.18,49.86,2a136.88,136.88,0,0,0-.22-19.9c-.32-2.24-.53-4.48-4-7.41-5.34-4.46-12.3-9.29-19.68-9.29S82.45,5.94,77.68,10.55A14.58,14.58,0,0,0,74,17.34Z"/><path class="cls-31" d="M91.4,1.46,92.72,24h10.17l1.72-22.62S97.78-1.76,91.4,1.46Z"/><path class="cls-31" d="M68.2,38.8c8.33-9.29,34.43-18.9,55.9.8C111.12,34.32,89,31.11,68.2,38.8Z"/></g></g></svg>