<?xml version="1.0" encoding="utf-8"?>
<!-- Generator: Adobe Illustrator 22.0.0, SVG Export Plug-In . SVG Version: 6.00 Build 0)  -->
<svg version="1.1" id="Layer_1" xmlns="http://www.w3.org/2000/svg" xmlns:xlink="http://www.w3.org/1999/xlink" x="0px" y="0px"
	 viewBox="0 0 505 505" style="enable-background:new 0 0 505 505;" xml:space="preserve">
<style type="text/css">
	.st0{fill:#FF7058;}
	.st1{fill:#F1543F;}
	.st2{fill:#324A5E;}
	.st3{fill:#2B3B4E;}
	.st4{fill:#FFFFFF;}
	.st5{fill:#ACB3BA;}
	.st6{fill:#84DBFF;}
	.st7{fill:#111111;}
</style>
<path class="st0" d="M505,252.5C505,392,392,505,252.5,505S0,392,0,252.5C0,113.1,113,0,252.5,0c110.1,0,203.7,70.5,238.3,168.7
	c7.4,21,12.1,43.3,13.7,66.5C504.8,240.9,505,246.7,505,252.5z"/>
<path class="st1" d="M38.6,386.6C83.3,457.7,162.3,505,252.5,505s169.2-47.3,213.9-118.4H38.6z"/>
<path class="st2" d="M445.1,354.4H59.9c-3.1,0-5.1,3.3-3.6,6l6.1,11.4c4.8,9,14.1,14.5,24.3,14.5h331.6c10.2,0,19.5-5.6,24.3-14.5
	l6.1-11.4C450.1,357.7,448.2,354.4,445.1,354.4z"/>
<path class="st3" d="M417.2,354.4H90.4c-1.4,0-2.6-1.1-2.6-2.6V124.5c0-1.4,1.1-2.6,2.6-2.6h326.8c1.4,0,2.6,1.1,2.6,2.6v227.3
	C419.7,353.2,418.6,354.4,417.2,354.4z"/>
<rect x="103.2" y="146.8" class="st4" width="301.2" height="187.1"/>
<circle class="st2" cx="253.8" cy="134.1" r="5.7"/>
<polygon class="st5" points="295.7,361.6 209.3,361.6 202,354.4 303,354.4 "/>
<polygon class="st6" points="176.5,235.3 217.4,198.9 222.2,193.8 225.4,199.4 278.2,274.4 372.6,228.7 396.6,237.9 396.6,244.3 
	373.1,235.4 274.6,283.1 220.2,206 184,238.3 "/>
<polygon class="st0" points="217.9,255.5 286.6,192 350.7,278.1 396.6,272.7 396.6,278.2 345.4,284.3 285.2,203.3 224.5,259.3 
	182.9,277.5 177.6,273.2 "/>
<g>
	<rect x="121" y="169.6" class="st7" width="17.4" height="7.5"/>
	<rect x="121" y="193.1" class="st7" width="17.4" height="7.5"/>
	<rect x="121" y="216.5" class="st7" width="17.4" height="7.5"/>
	<rect x="121" y="240" class="st7" width="17.4" height="7.5"/>
	<rect x="121" y="263.5" class="st7" width="17.4" height="7.5"/>
	<rect x="121" y="287" class="st7" width="17.4" height="7.5"/>
	<polygon class="st7" points="111,323.3 111,153 126.4,153 126.4,314.1 394.9,314.1 394.9,323.3 	"/>
</g>
</svg>
