<svg xmlns="http://www.w3.org/2000/svg" viewBox="0 0 90 90"><defs><style>.cls-1{fill:#f78d1e;}.cls-2{fill:#111;}</style></defs><title>porcentaje</title><g id="Layer_2" data-name="Layer 2"><g id="Pagina_inicial_Movil" data-name="Pagina inicial Movil"><circle class="cls-1" cx="45" cy="45" r="45"/><path class="cls-2" d="M55.9,60.3a1.3,1.3,0,0,1-.1,2,19.7,19.7,0,0,1-11.2,3.6A20.1,20.1,0,0,1,24.5,46.7,19.9,19.9,0,0,1,41.6,26.4,1.3,1.3,0,0,1,43,27.7V47.4Zm9.6-16.9H47V24.9a1.4,1.4,0,0,1,1.4-1.4A20,20,0,0,1,66.9,42,1.4,1.4,0,0,1,65.5,43.4Zm4,5.5a19.5,19.5,0,0,1-6,11.6,1.4,1.4,0,0,1-1.9,0L48.5,47.4H68.2A1.3,1.3,0,0,1,69.5,48.9Z"/></g></g></svg>