<svg xmlns="http://www.w3.org/2000/svg" viewBox="0 0 90 90"><defs><style>.cls-1{fill:#f78d1e;}.cls-2{fill:#111;}</style></defs><title>reporte</title><g id="Layer_2" data-name="Layer 2"><g id="Pagina_inicial_Movil" data-name="Pagina inicial Movil"><circle class="cls-1" cx="45" cy="45" r="45"/><path class="cls-2" d="M60.3,38.8V65.9a2,2,0,0,1-2,2H30.5a2,2,0,0,1-2-2V27.5a2,2,0,0,1,2-2H47V36.8a2,2,0,0,0,2,2ZM44.8,48.5c.4-1.5,1-3.8.5-5.3a2,2,0,0,0-3.9-.5c-.4,1.5,0,3.6.7,6.3-1,2.3-2.4,5.4-3.4,7.1h0c-2.3,1.1-6.1,3.6-4.5,5.6a2.2,2.2,0,0,0,1.7.8c1.5,0,3-1.5,5.1-5.1a43,43,0,0,1,6.5-1.9,12.2,12.2,0,0,0,5.3,1.6,2.2,2.2,0,0,0,1.7-3.6c-1.2-1.1-4.5-.8-6.1-.6A8.2,8.2,0,0,1,44.8,48.5Zm-6.3,9.1c-1.8,2.9-2.9,3.4-2.9,3.4S38,58.2,38.5,57.6ZM46.3,54a39,39,0,0,0-5.2,1.8,34.3,34.3,0,0,0,2.3-5.2A9.9,9.9,0,0,0,46.3,54ZM43.4,42.9c.7,0,.6,3,.2,3.8C43.1,45.4,43.2,42.9,43.4,42.9Zm16.9-7.3v.5H49.7V25.5h.5a2,2,0,0,1,1.4.6l8.1,8.1A2,2,0,0,1,60.3,35.6ZM50,54.6c3.4-.2,3.9.5,3.6.8S53.1,55.9,50,54.6Z"/></g></g></svg>