<svg xmlns="http://www.w3.org/2000/svg" viewBox="0 0 73 73"><defs><style>.cls-1{fill:#f7b71e;}.cls-2{fill:#111;}</style></defs><title>servicio-1</title><g id="Layer_2" data-name="Layer 2"><g id="Pagina_inicial_Movil" data-name="Pagina inicial Movil"><circle class="cls-1" cx="36.5" cy="36.5" r="36.5"/><path class="cls-2" d="M51.3,22.8V51.9a4,4,0,0,1-4,4H23.5a4,4,0,0,1-4-4V22.8a4,4,0,0,1,4-4h6.6a5.3,5.3,0,0,1,10.6,0h6.6A4,4,0,0,1,51.3,22.8Zm-21.9,8a2,2,0,0,0-2-2,1.9,1.9,0,0,0-1.9,2,1.8,1.8,0,0,0,1.9,1.9A1.9,1.9,0,0,0,29.4,30.8Zm0,7.9a2,2,0,0,0-2-2,2,2,0,0,0,0,4A2,2,0,0,0,29.4,38.7Zm0,7.9a1.9,1.9,0,0,0-2-1.9,1.8,1.8,0,0,0-1.9,1.9,1.9,1.9,0,0,0,1.9,2A2,2,0,0,0,29.4,46.6ZM46,30.1a.7.7,0,0,0-.7-.7H33.4a.7.7,0,0,0-.7.7v1.3a.7.7,0,0,0,.7.7H45.3a.7.7,0,0,0,.7-.7ZM46,38a.7.7,0,0,0-.7-.6H33.4a.7.7,0,0,0-.7.6v1.4a.7.7,0,0,0,.7.6H45.3a.7.7,0,0,0,.7-.6Zm0,8a.7.7,0,0,0-.7-.7H33.4a.7.7,0,0,0-.7.7v1.3a.7.7,0,0,0,.7.7H45.3a.7.7,0,0,0,.7-.7ZM33.4,18.8a2,2,0,1,0,2-2A2,2,0,0,0,33.4,18.8Z"/></g></g></svg>