<svg xmlns="http://www.w3.org/2000/svg" viewBox="0 0 73 73"><defs><style>.cls-1{fill:#f7b71e;}.cls-2{fill:#111;}</style></defs><title>servicio-3</title><g id="Layer_2" data-name="Layer 2"><g id="Pagina_inicial_Movil" data-name="Pagina inicial Movil"><circle class="cls-1" cx="36.5" cy="36.5" r="36.5"/><path class="cls-2" d="M58.8,23V47.1a3.6,3.6,0,0,1-3.6,3.6H40.7l1.2,3.6h5.4a1.8,1.8,0,1,1,0,3.6H26.9a1.8,1.8,0,1,1,0-3.6h5.4l1.2-3.6H19a3.6,3.6,0,0,1-3.6-3.6V23A3.6,3.6,0,0,1,19,19.4H55.2A3.6,3.6,0,0,1,58.8,23ZM54,24.2H20.2V45.9H54Z"/></g></g></svg>