<svg xmlns="http://www.w3.org/2000/svg" viewBox="0 0 73 73"><defs><style>.cls-1{fill:#f7b71e;}.cls-2{fill:#111;}</style></defs><title>servicio-2</title><g id="Layer_2" data-name="Layer 2"><g id="Pagina_inicial_Movil" data-name="Pagina inicial Movil"><circle class="cls-1" cx="36.5" cy="36.5" r="36.5"/><path class="cls-2" d="M34.5,52.4a3.6,3.6,0,0,1-3.6,3.5H14a3.6,3.6,0,0,1-3.6-3.5,8.4,8.4,0,0,1,8.4-8.5h.5a11.2,11.2,0,0,0,3.1.5,10.6,10.6,0,0,0,3.1-.5H26A8.5,8.5,0,0,1,34.5,52.4ZM15.2,34.3A7.3,7.3,0,0,1,22.4,27a7.3,7.3,0,1,1,0,14.5A7.2,7.2,0,0,1,15.2,34.3ZM58.6,21.1V45a3.8,3.8,0,0,1-3.7,3.7H36.5a9.5,9.5,0,0,0-2.9-4.8h5.7V39.1h9.6v4.8h4.8V22.2H27.2V26a8.7,8.7,0,0,0-4.8-1.4V21.1A3.7,3.7,0,0,1,26,17.4H54.9A3.8,3.8,0,0,1,58.6,21.1Z"/></g></g></svg>